# xmcd CD database file
#
# Track frame offsets:
#	150
#	17764
#	38372
#	55409
#	77694
#	99809
#	117910
#	140346
#	162705
#	187522
#	208076
#	221490
#
# Disc length: 3267 seconds
#
# Revision: 1
# Processed by: cddbd v1.5.2PL0 Copyright (c) Steve Scherf et al.
# Submitted via: CDex 1.51
#
DISCID=960cc10c
DTITLE=Eddie Kirkland - Booty Blues
DYEAR=2005
DGENRE=Blues
TTITLE0=Good Good Day
TTITLE1=How Sweet It Is
TTITLE2=Miss You
TTITLE3=Beautiful Song
TTITLE4=Make Love To Your Brain
TTITLE5=Small Town Girl
TTITLE6=Big T.V. Screen
TTITLE7=Meet Me On The Boardwalk
TTITLE8=I Cried
TTITLE9=No Insurance
TTITLE10=Johnny's Gone
TTITLE11=I Got A Problem With The Devil
EXTD=YEAR: 2005
EXTT0=
EXTT1=
EXTT2=
EXTT3=
EXTT4=
EXTT5=
EXTT6=
EXTT7=
EXTT8=
EXTT9=
EXTT10=
EXTT11=
PLAYORDER=
